<svg viewBox="60 85 230 170" fill="none" xmlns="http://www.w3.org/2000/svg"><g filter="url(#a)" fill="#0080FF"><path d="M213.004 238.293a3.713 3.713 0 0 0 3.667-3.011l26.25-136.547c.706-3.673-3.85-5.965-6.378-3.208l-72.285 78.834a3.731 3.731 0 0 1-.808.663l-91.396 55.551c-3.196 1.943-1.835 6.858 1.905 6.881l139.045.837Z"/><path d="M135.481 237.855a3.71 3.71 0 0 1-3.625-3.06L107.473 97.902c-.656-3.683 3.931-5.912 6.421-3.12l71.202 79.813c.233.261.502.488.799.674l90.628 56.794c3.169 1.987 1.742 6.883-1.998 6.855l-139.044-1.063Z"/></g><defs><filter id="a" x="70.265" y="93.527" width="219.355" height="154.995" filterUnits="userSpaceOnUse" color-interpolation-filters="sRGB"><feFlood flood-opacity="0" result="BackgroundImageFix"/><feBlend in="SourceGraphic" in2="BackgroundImageFix" result="shape"/><feColorMatrix in="SourceAlpha" values="0 0 0 0 0 0 0 0 0 0 0 0 0 0 0 0 0 0 127 0" result="hardAlpha"/><feOffset dx="11.35" dy="9.604"/><feGaussianBlur stdDeviation="9.2"/><feComposite in2="hardAlpha" operator="arithmetic" k2="-1" k3="1"/><feColorMatrix values="0 0 0 0 1 0 0 0 0 1 0 0 0 0 1 0 0 0 0.46 0"/><feBlend in2="shape" result="effect1_innerShadow_8_140"/></filter></defs></svg>